<?xml version="1.0" encoding="UTF-8" standalone="no"?>
<!-- Created with Inkscape (http://www.inkscape.org/) -->

<svg
   width="210mm"
   height="297mm"
   viewBox="0 0 210 297"
   version="1.1"
   id="svg5"
   xml:space="preserve"
   inkscape:export-filename="ILRepack.FullAuto.2048.png"
   inkscape:export-xdpi="383.77472"
   inkscape:export-ydpi="383.77472"
   inkscape:version="1.2.1 (9c6d41e410, 2022-07-14)"
   sodipodi:docname="ILRepack.FullAuto.svg"
   xmlns:inkscape="http://www.inkscape.org/namespaces/inkscape"
   xmlns:sodipodi="http://sodipodi.sourceforge.net/DTD/sodipodi-0.dtd"
   xmlns="http://www.w3.org/2000/svg"
   xmlns:svg="http://www.w3.org/2000/svg"><sodipodi:namedview
     id="namedview7"
     pagecolor="#ffffff"
     bordercolor="#000000"
     borderopacity="0.25"
     inkscape:showpageshadow="2"
     inkscape:pageopacity="0.0"
     inkscape:pagecheckerboard="0"
     inkscape:deskcolor="#d1d1d1"
     inkscape:document-units="mm"
     showgrid="false"
     inkscape:zoom="0.914906"
     inkscape:cx="172.69534"
     inkscape:cy="368.34385"
     inkscape:window-width="3840"
     inkscape:window-height="1529"
     inkscape:window-x="3832"
     inkscape:window-y="1072"
     inkscape:window-maximized="1"
     inkscape:current-layer="layer1" /><defs
     id="defs2" /><g
     inkscape:label="Layer 1"
     inkscape:groupmode="layer"
     id="layer1"><g
       id="g194"><path
         fill="#597b91"
         d="M 28.029506,30.544856 H 142.40888 c 4.68312,0 8.46667,3.783541 8.46667,8.466666 v 82.232498 c 0,4.68313 -3.78355,8.46667 -8.46667,8.46667 H 32.262839 c -4.683125,0 -8.466667,-3.78354 -8.466667,-8.46667 V 39.011522 c 0,-4.683125 -0.449791,-8.466666 4.233334,-8.466666 z"
         id="path9"
         style="stroke-width:0.264583;fill:#aa8800" /><path
         fill="#2b3b47"
         d="m 146.64221,30.544856 h -38.12646 v -6.614583 c 0,-4.683125 -3.78354,-8.466667 -8.46666,-8.466667 H 74.62263 c -4.683125,0 -8.466667,3.783542 -8.466667,8.466667 v 6.588124 H 28.029506 c -4.683125,0 -8.466667,3.783542 -8.466667,8.466667 v 31.406041 c 0,4.683125 3.783542,8.466667 8.466667,8.466667 H 146.64221 c 4.68313,0 8.46667,-3.783542 8.46667,-8.466667 V 39.011522 c 0.0265,-4.683125 -3.78354,-8.466666 -8.46667,-8.466666 z M 74.62263,28.190064 c 0,-2.328333 1.905,-4.233333 4.233333,-4.233333 h 16.933333 c 2.354792,0 4.233334,1.905 4.233334,4.233333 v 2.354792 H 74.596172 v -2.354792 z"
         id="path11"
         style="stroke-width:0.264583;fill:#554400" /><path
         fill="#ffd469"
         d="m 44.989297,105.66006 c 0,0.50271 0.105833,1.00542 0.291042,1.45521 0.873125,2.03729 3.545416,7.75229 6.19125,7.75229 2.592916,0 5.132916,-5.76791 5.953125,-7.77875 0.185208,-0.44979 0.264583,-0.92604 0.264583,-1.40229 V 32.185272 c 0,-2.06375 -1.693333,-3.757083 -3.757083,-3.757083 H 48.74638 c -2.06375,0 -3.757083,1.693333 -3.757083,3.757083 z M 117.00888,32.185272 v 73.501248 c 0,0.50271 0.10583,1.00542 0.29104,1.45521 0.87313,2.03729 3.54542,7.75229 6.19125,7.75229 2.59292,0 5.13292,-5.76792 5.95313,-7.77875 0.1852,-0.44979 0.26458,-0.92604 0.26458,-1.40229 V 32.185272 c 0,-2.06375 -1.69333,-3.757083 -3.75708,-3.757083 h -5.18584 c -2.09021,-0.02646 -3.75708,1.666875 -3.75708,3.757083 z"
         id="path13"
         style="stroke-width:0.264583;fill:#d40000" /><path
         fill="#edece6"
         d="m 44.909922,100.0509 h 12.85875 c 2.301875,0 4.153958,-1.852087 4.153958,-4.153962 v -4.392083 c 0,-2.301875 -1.852083,-4.153958 -4.153958,-4.153958 h -12.85875 c -2.301875,0 -4.153958,1.852083 -4.153958,4.153958 v 4.392083 c 0,2.301875 1.852083,4.153962 4.153958,4.153962 z m 67.865628,-8.546045 v 4.392083 c 0,2.301875 1.85208,4.153962 4.15395,4.153962 h 12.85875 c 2.30188,0 4.15396,-1.852087 4.15396,-4.153962 v -4.392083 c 0,-2.301875 -1.85208,-4.153958 -4.15396,-4.153958 H 116.9295 c -2.30187,0 -4.15395,1.852083 -4.15395,4.153958 z"
         id="path15"
         style="stroke-width:0.264583;fill:#225500" /></g></g></svg>
